<?xml version="1.0" encoding="utf-8"?><svg xmlns="http://www.w3.org/2000/svg" xmlns:xlink="http://www.w3.org/1999/xlink" width="1526" height="771" preserveAspectRatio="xMidYMid" viewBox="0 0 1526 771" style="z-index:1;margin-right:-2px;display:block;background-repeat-y:initial;background-repeat-x:initial;background-color:rgb(241, 242, 243);animation-play-state:paused" ><g transform="translate(763,385.5) scale(1,1) translate(-763,-385.5)" style="transform:matrix(1, 0, 0, 1, 0, 0);animation-play-state:paused" ><path id="path0" d="M 840.7615012562771 626.9878175279799
c 0 24.80795762088586 -6.0700321838337725 7.1256899549353 -13.195722138769073 7.1256899549353
S 814.3700569787391 651.7957751488658 814.3700569787391 626.9878175279799
s 6.0700321838337725 -7.1256899549353 13.195722138769073 -7.1256899549353
S 840.7615012562771 602.179859907094 840.7615012562771 626.9878175279799
z" fill="none" stroke="none" style="animation-play-state:paused" ></path>


<circle cx="0" cy="0" r="7.64646374624508" fill="#de9dd6" transform="translate(840.7022094726562 623.1276245117188)" style="animation-play-state:paused" ></circle>
<path id="path1" d="M 988.4162426588344 89.91959638686454
c 0 21.62316594916862 -5.2907746471370025 6.210909368378221 -11.501684015515224 6.210909368378221
S 965.412874627804 111.54276233603316 965.412874627804 89.91959638686454
s 5.2907746471370025 -6.210909368378221 11.501684015515224 -6.210909368378221
S 988.4162426588344 68.29643043769592 988.4162426588344 89.91959638686454
z" fill="none" stroke="none" style="animation-play-state:paused" ></path>


<circle cx="0" cy="0" r="5.016401618920079" fill="#e0ff77" transform="translate(965.5714111328125 95.4074478149414)" style="animation-play-state:paused" ></circle>
<path id="path2" d="M 408.9945606978815 486.27353390029515
c 0 34.09004155417459 -8.34118038027676 9.79182044641185 -18.13300082668861 9.79182044641185
S 372.7285590445043 520.3635754544697 372.7285590445043 486.27353390029515
s 8.34118038027676 -9.79182044641185 18.13300082668861 -9.79182044641185
S 408.9945606978815 452.18349234612054 408.9945606978815 486.27353390029515
z" fill="none" stroke="none" style="animation-play-state:paused" ></path>


<circle cx="0" cy="0" r="7.955383939994698" fill="#ff708e" transform="translate(372.8150939941406 480.8201904296875)" style="animation-play-state:paused" ></circle>
<path id="path3" d="M 1065.692172680927 215.5449687571238
c 0 32.63348257359062 -7.98478828928281 9.373447122201561 -17.358235411484372 9.373447122201561
S 1030.975701857958 248.1784513307144 1030.975701857958 215.5449687571238
s 7.98478828928281 -9.373447122201561 17.358235411484372 -9.373447122201561
S 1065.692172680927 182.91148618353319 1065.692172680927 215.5449687571238
z" fill="none" stroke="none" style="animation-play-state:paused" ></path>


<circle cx="0" cy="0" r="6.229006564773869" fill="#9df871" transform="translate(1043.1134033203125 204.14370727539062)" style="animation-play-state:paused" ></circle>
<path id="path4" d="M 961.2230645412102 147.74877354556145
c 0 23.693202852804 -5.797273038452042 6.805494436443702 -12.602767474895744 6.805494436443702
S 936.0175295914188 171.44197639836545 936.0175295914188 147.74877354556145
s 5.797273038452042 -6.805494436443702 12.602767474895744 -6.805494436443702
S 961.2230645412102 124.05557069275744 961.2230645412102 147.74877354556145
z" fill="none" stroke="none" style="animation-play-state:paused" ></path>


<circle cx="0" cy="0" r="7.816546678065289" fill="#9df871" transform="translate(960.952880859375 140.57620239257812)" style="animation-play-state:paused" ></circle>
<path id="path5" d="M 555.603948859349 741.1110455957153
c 0 32.57467840154295 -7.9704000344200825 9.356556562145315 -17.326956596565395 9.356556562145315
S 520.9500356662181 773.6857239972583 520.9500356662181 741.1110455957153
s 7.9704000344200825 -9.356556562145315 17.326956596565395 -9.356556562145315
S 555.603948859349 708.5363671941723 555.603948859349 741.1110455957153
z" fill="none" stroke="none" style="animation-play-state:paused" ></path>


<circle cx="0" cy="0" r="7.448576767664375" fill="#ff708e" transform="translate(543.0022583007812 730.0602416992188)" style="animation-play-state:paused" ></circle>
<path id="path6" d="M 752.0569789228157 364.2819163851675
c 0 30.96984861327872 -7.577728916015006 8.895594814452398 -16.473323730467403 8.895594814452398
S 719.1103314618808 395.2517649984462 719.1103314618808 364.2819163851675
s 7.577728916015006 -8.895594814452398 16.473323730467403 -8.895594814452398
S 752.0569789228157 333.3120677718888 752.0569789228157 364.2819163851675
z" fill="none" stroke="none" style="animation-play-state:paused" ></path>


<circle cx="0" cy="0" r="6.483594409600641" fill="#de9dd6" transform="translate(751.4559326171875 352.8795166015625)" style="animation-play-state:paused" ></circle>
<path id="path7" d="M 854.7554977714871 260.99100388064
c 0 24.920508362804576 -6.097571195154311 7.158018359528974 -13.255589554683285 7.158018359528974
S 828.2443186621205 285.9115122434446 828.2443186621205 260.99100388064
s 6.097571195154311 -7.158018359528974 13.255589554683285 -7.158018359528974
S 854.7554977714871 236.0704955178354 854.7554977714871 260.99100388064
z" fill="none" stroke="none" style="animation-play-state:paused" ></path>


<circle cx="0" cy="0" r="5.736144548284176" fill="#f3f2ee" transform="translate(854.6910400390625 265.01312255859375)" style="animation-play-state:paused" ></circle>
<path id="path8" d="M 1529.9902967769888 183.6512894713962
c 0 25.63923867712638 -6.273430740147943 7.364462173217151 -13.637892913365095 7.364462173217151
S 1502.7145109502587 209.29052814852258 1502.7145109502587 183.6512894713962
s 6.273430740147943 -7.364462173217151 13.637892913365095 -7.364462173217151
S 1529.9902967769888 158.01205079426984 1529.9902967769888 183.6512894713962
z" fill="none" stroke="none" style="animation-play-state:paused" ></path>


<circle cx="0" cy="0" r="6.547892987587995" fill="#9df871" transform="translate(1529.9901123046875 183.59854125976562)" style="animation-play-state:paused" ></circle>
<path id="path9" d="M 1526.952290285883 454.08035245550974
c 0 28.637956484278952 -7.007159565302296 8.225796011441826 -15.232955576744123 8.225796011441826
S 1496.4863791323946 482.7183089397887 1496.4863791323946 454.08035245550974
s 7.007159565302296 -8.225796011441826 15.232955576744123 -8.225796011441826
S 1526.952290285883 425.4423959712308 1526.952290285883 454.08035245550974
z" fill="none" stroke="none" style="animation-play-state:paused" ></path>


<circle cx="0" cy="0" r="7.287396877908855" fill="#9df871" transform="translate(1526.895263671875 449.9867248535156)" style="animation-play-state:paused" ></circle>
<path id="path10" d="M 791.767025908694 497.66050734119904
c 0 33.576755017236536 -8.215588993579152 9.644387079419007 -17.85997607299816 9.644387079419007
S 756.0470737626977 531.2372623584356 756.0470737626977 497.66050734119904
s 8.215588993579152 -9.644387079419007 17.85997607299816 -9.644387079419007
S 791.767025908694 464.08375232396247 791.767025908694 497.66050734119904
z" fill="none" stroke="none" style="animation-play-state:paused" ></path>


<circle cx="0" cy="0" r="6.7265906722716124" fill="#e0ff77" transform="translate(756.6441650390625 485.67059326171875)" style="animation-play-state:paused" ></circle>
<path id="path11" d="M 150.62578113714758 727.2329062086573
c 0 36.71927212308789 -8.984502753521506 10.547024971525246 -19.53152772504675 10.547024971525246
S 111.5627256870541 763.9521783317451 111.5627256870541 727.2329062086573
s 8.984502753521506 -10.547024971525246 19.53152772504675 -10.547024971525246
S 150.62578113714758 690.5136340855694 150.62578113714758 727.2329062086573
z" fill="none" stroke="none" style="animation-play-state:paused" ></path>


<circle cx="0" cy="0" r="7.294203562143535" fill="#e0ff77" transform="translate(111.59550476074219 730.8416748046875)" style="animation-play-state:paused" ></circle>
<path id="path12" d="M 1293.1874080116272 726.898664308677
c 0 24.39319909351359 -5.968548714370346 7.006557186434756 -12.9751059008051 7.006557186434756
S 1267.237196210017 751.2918634021905 1267.237196210017 726.898664308677
s 5.968548714370346 -7.006557186434756 12.9751059008051 -7.006557186434756
S 1293.1874080116272 702.5054652151634 1293.1874080116272 726.898664308677
z" fill="none" stroke="none" style="animation-play-state:paused" ></path>


<circle cx="0" cy="0" r="6.755899046560874" fill="#ff708e" transform="translate(1292.655517578125 736.2412109375)" style="animation-play-state:paused" ></circle>
<path id="path13" d="M 1442.2478753325033 534.1559090929039
c 0 32.103209508399644 -7.855040624395657 9.221134646029686 -17.076175270425342 9.221134646029686
S 1408.0955247916525 566.2591186013036 1408.0955247916525 534.1559090929039
s 7.855040624395657 -9.221134646029686 17.076175270425342 -9.221134646029686
S 1442.2478753325033 502.0526995845043 1442.2478753325033 534.1559090929039
z" fill="none" stroke="none" style="animation-play-state:paused" ></path>


<circle cx="0" cy="0" r="5.23588225000658" fill="#ff708e" transform="translate(1418.3023681640625 546.7055053710938)" style="animation-play-state:paused" ></circle>
<path id="path14" d="M 663.8068621498384 305.3980163876802
c 0 29.403542310634755 -7.194483756857439 8.44569832326743 -15.64018208012487 8.44569832326743
S 632.5264979895886 334.8015586983149 632.5264979895886 305.3980163876802
s 7.194483756857439 -8.44569832326743 15.64018208012487 -8.44569832326743
S 663.8068621498384 275.9944740770454 663.8068621498384 305.3980163876802
z" fill="none" stroke="none" style="animation-play-state:paused" ></path>


<circle cx="0" cy="0" r="7.584643676351277" fill="#9df871" transform="translate(632.5502319335938 308.15850830078125)" style="animation-play-state:paused" ></circle>
<path id="path15" d="M 1347.479896917301 155.522756543483
c 0 37.37617563697637 -9.145234464366558 10.735710023386831 -19.88094448775339 10.735710023386831
S 1307.7180079417942 192.89893218045938 1307.7180079417942 155.522756543483
s 9.145234464366558 -10.735710023386831 19.88094448775339 -10.735710023386831
S 1347.479896917301 118.14658090650664 1347.479896917301 155.522756543483
z" fill="none" stroke="none" style="animation-play-state:paused" ></path>


<circle cx="0" cy="0" r="4.958614293210879" fill="#f3f2ee" transform="translate(1347.446533203125 159.18846130371094)" style="animation-play-state:paused" ></circle>
<path id="path16" d="M 636.8377318044202 313.9216779071026
c 0 36.93842033725321 -9.038124125072594 10.609971798998263 -19.648095924070855 10.609971798998263
S 597.5415399562785 350.8600982443558 597.5415399562785 313.9216779071026
s 9.038124125072594 -10.609971798998263 19.648095924070855 -10.609971798998263
S 636.8377318044202 276.9832575698494 636.8377318044202 313.9216779071026
z" fill="none" stroke="none" style="animation-play-state:paused" ></path>


<circle cx="0" cy="0" r="7.278130135485886" fill="#f3f2ee" transform="translate(599.0814819335938 296.7851257324219)" style="animation-play-state:paused" ></circle>
<path id="path17" d="M 888.6865068753004 42.26245839960691
c 0 20.905576862182784 -5.115194338619191 6.004793354031226 -11.119987692650417 6.004793354031226
S 866.4465314899996 63.1680352617897 866.4465314899996 42.26245839960691
s 5.115194338619191 -6.004793354031226 11.119987692650417 -6.004793354031226
S 888.6865068753004 21.35688153742413 888.6865068753004 42.26245839960691
z" fill="none" stroke="none" style="animation-play-state:paused" ></path>


<circle cx="0" cy="0" r="4.664969813724013" fill="#ff708e" transform="translate(882.9138793945312 51.17860794067383)" style="animation-play-state:paused" ></circle>
<path id="path18" d="M 168.26998551729983 460.8114682663289
c 0 29.757930452351346 -7.2811957489795835 8.5474906618456 -15.828686410825183 8.5474906618456
S 136.61261269564946 490.56939871868025 136.61261269564946 460.8114682663289
s 7.2811957489795835 -8.5474906618456 15.828686410825183 -8.5474906618456
S 168.26998551729983 431.0535378139776 168.26998551729983 460.8114682663289
z" fill="none" stroke="none" style="animation-play-state:paused" ></path>


<circle cx="0" cy="0" r="5.659878972169933" fill="#9df871" transform="translate(149.10061645507812 470.3210144042969)" style="animation-play-state:paused" ></circle>
<path id="path19" d="M 584.6674694774864 763.2617758480179
c 0 26.19454565709901 -6.409303724609331 7.523965241932694 -13.933268966542025 7.523965241932694
S 556.8009315444023 789.4563215051169 556.8009315444023 763.2617758480179
s 6.409303724609331 -7.523965241932694 13.933268966542025 -7.523965241932694
S 584.6674694774864 737.067230190919 584.6674694774864 763.2617758480179
z" fill="none" stroke="none" style="animation-play-state:paused" ></path>


<circle cx="0" cy="0" r="5.781541225758334" fill="#ff708e" transform="translate(560.2723388671875 749.3829345703125)" style="animation-play-state:paused" ></circle>
<path id="path20" d="M 1477.1531954432521 383.00514672169095
c 0 34.21295023246338 -8.371253780283592 9.827124002941607 -18.198377783225197 9.827124002941607
S 1440.7564398768018 417.2180969541543 1440.7564398768018 383.00514672169095
s 8.371253780283592 -9.827124002941607 18.198377783225197 -9.827124002941607
S 1477.1531954432521 348.7921964892276 1477.1531954432521 383.00514672169095
z" fill="none" stroke="none" style="animation-play-state:paused" ></path>


<circle cx="0" cy="0" r="4.849862909015342" fill="#9df871" transform="translate(1463.2186279296875 394.1767272949219)" style="animation-play-state:paused" ></circle>
<path id="path21" d="M 717.3076560512575 109.43613496979549
c 0 34.217130614289125 -8.372276639666486 9.828324750912834 -18.200601390579322 9.828324750912834
S 680.9064532700988 143.6532655840846 680.9064532700988 109.43613496979549
s 8.372276639666486 -9.828324750912834 18.200601390579322 -9.828324750912834
S 717.3076560512575 75.21900435550637 717.3076560512575 109.43613496979549
z" fill="none" stroke="none" style="animation-play-state:paused" ></path>


<circle cx="0" cy="0" r="6.777073486423161" fill="#f3f2ee" transform="translate(717.2605590820312 105.3040542602539)" style="animation-play-state:paused" ></circle>
<path id="path22" d="M 281.5504518595468 298.2730148606567
c 0 31.261054191752255 -7.648981344790444 8.979238969971393 -16.628220314761837 8.979238969971393
S 248.2940112300231 329.53406905240894 248.2940112300231 298.2730148606567
s 7.648981344790444 -8.979238969971393 16.628220314761837 -8.979238969971393
S 281.5504518595468 267.01196066890446 281.5504518595468 298.2730148606567
z" fill="none" stroke="none" style="animation-play-state:paused" ></path>


<circle cx="0" cy="0" r="7.168983376576719" fill="#de9dd6" transform="translate(253.1378173828125 314.5406188964844)" style="animation-play-state:paused" ></circle>
<path id="path23" d="M 780.8472084660877 193.19573962834224
c 0 32.44935995285213 -7.939737009740414 9.320560837521356 -17.260297847261768 9.320560837521356
S 746.3266127715642 225.64509958119436 746.3266127715642 193.19573962834224
s 7.939737009740414 -9.320560837521356 17.260297847261768 -9.320560837521356
S 780.8472084660877 160.74637967549012 780.8472084660877 193.19573962834224
z" fill="none" stroke="none" style="animation-play-state:paused" ></path>


<circle cx="0" cy="0" r="6.619602589839766" fill="#ff708e" transform="translate(772.537109375 207.59994506835938)" style="animation-play-state:paused" ></circle>
<path id="path24" d="M 318.6142030259296 562.413926055722
c 0 26.629764390632516 -6.515793414729232 7.648974878160404 -14.164768292889637 7.648974878160404
S 290.2846664401504 589.0436904463545 290.2846664401504 562.413926055722
s 6.515793414729232 -7.648974878160404 14.164768292889637 -7.648974878160404
S 318.6142030259296 535.7841616650894 318.6142030259296 562.413926055722
z" fill="none" stroke="none" style="animation-play-state:paused" ></path>


<circle cx="0" cy="0" r="5.917612114079079" fill="#de9dd6" transform="translate(290.3515625 566.653076171875)" style="animation-play-state:paused" ></circle>
<path id="path25" d="M 370.023470238785 530.8081924258807
c 0 36.02494041259586 -8.814613079677711 10.347589267447749 -19.162202347125458 10.347589267447749
S 331.6990655445341 566.8331328384766 331.6990655445341 530.8081924258807
s 8.814613079677711 -10.347589267447749 19.162202347125458 -10.347589267447749
S 370.023470238785 494.7832520132849 370.023470238785 530.8081924258807
z" fill="none" stroke="none" style="animation-play-state:paused" ></path>


<circle cx="0" cy="0" r="6.649244791592958" fill="#e0ff77" transform="translate(369.9292907714844 536.6485595703125)" style="animation-play-state:paused" ></circle>
<path id="path26" d="M 613.7092412116938 427.5205765618776
c 0 35.85020447690448 -8.771858542221308 10.297399158259799 -19.069257700481106 10.297399158259799
S 575.5707258107316 463.37078103878207 575.5707258107316 427.5205765618776
s 8.771858542221308 -10.297399158259799 19.069257700481106 -10.297399158259799
S 613.7092412116938 391.6703720849731 613.7092412116938 427.5205765618776
z" fill="none" stroke="none" style="animation-play-state:paused" ></path>


<circle cx="0" cy="0" r="6.620121855289703" fill="#de9dd6" transform="translate(589.1220703125 415.1462707519531)" style="animation-play-state:paused" ></circle>
<path id="path27" d="M 619.4890090127908 564.4599253099196
c 0 27.21262961634885 -6.658409374213015 7.816393613206584 -14.474802987419599 7.816393613206584
S 590.5394030379516 591.6725549262685 590.5394030379516 564.4599253099196
s 6.658409374213015 -7.816393613206584 14.474802987419599 -7.816393613206584
S 619.4890090127908 537.2472956935708 619.4890090127908 564.4599253099196
z" fill="none" stroke="none" style="animation-play-state:paused" ></path>


<circle cx="0" cy="0" r="5.574653193157396" fill="#de9dd6" transform="translate(619.0930786132812 573.494140625)" style="animation-play-state:paused" ></circle>
<path id="path28" d="M 970.8638874372426 657.2756319198617
c 0 27.590112094270157 -6.750772108172484 7.924819431332917 -14.675591539505401 7.924819431332917
S 941.5127043582319 684.8657440141318 941.5127043582319 657.2756319198617
s 6.750772108172484 -7.924819431332917 14.675591539505401 -7.924819431332917
S 970.8638874372426 629.6855198255915 970.8638874372426 657.2756319198617
z" fill="none" stroke="none" style="animation-play-state:paused" ></path>


<circle cx="0" cy="0" r="5.289727481435121" fill="#ff708e" transform="translate(963.9513549804688 644.8956298828125)" style="animation-play-state:paused" ></circle>
<path id="path29" d="M 1207.0222098679913 262.0544661198762
c 0 30.223725383051498 -7.395166849044514 8.681282822791388 -16.076449671835903 8.681282822791388
S 1174.8693105243194 292.2781915029277 1174.8693105243194 262.0544661198762
s 7.395166849044514 -8.681282822791388 16.076449671835903 -8.681282822791388
S 1207.0222098679913 231.83074073682474 1207.0222098679913 262.0544661198762
z" fill="none" stroke="none" style="animation-play-state:paused" ></path>


<circle cx="0" cy="0" r="7.8470398493825755" fill="#ff708e" transform="translate(1207.0155029296875 263.56243896484375)" style="animation-play-state:paused" ></circle></g></svg>