<?xml version="1.0" encoding="utf-8"?><svg xmlns="http://www.w3.org/2000/svg" xmlns:xlink="http://www.w3.org/1999/xlink" width="1526" height="771" preserveAspectRatio="xMidYMid" viewBox="0 0 1526 771" style="z-index:1;margin-right:-2px;display:block;background-repeat-y:initial;background-repeat-x:initial;background-color:rgb(255, 255, 255);animation-play-state:paused" ><g transform="translate(763,385.5) scale(1,1) translate(-763,-385.5)" style="transform:matrix(1, 0, 0, 1, 0, 0);animation-play-state:paused" ><path id="path0" d="M 908.6907021455444 691.0795111957242
c 0 36.82019419345316 -9.009196451589602 10.5760132257791 -19.585209677368702 10.5760132257791
S 869.5202827908071 727.8997053891774 869.5202827908071 691.0795111957242
s 9.009196451589602 -10.5760132257791 19.585209677368702 -10.5760132257791
S 908.6907021455444 654.259317002271 908.6907021455444 691.0795111957242
z" fill="none" stroke="none" style="animation-play-state:paused" ></path>


<circle cx="0" cy="0" r="6.928646194122391" fill="#de9dd6" transform="translate(908.5228271484375 683.4402465820312)" style="animation-play-state:paused" ></circle>
<path id="path1" d="M 198.06005382361167 135.04615864720088
c 0 28.216990760345407 -6.9041573137015355 8.104880324780064 -15.0090376384816 8.104880324780064
S 168.04197854664847 163.26314940754628 168.04197854664847 135.04615864720088
s 6.9041573137015355 -8.104880324780064 15.0090376384816 -8.104880324780064
S 198.06005382361167 106.82916788685547 198.06005382361167 135.04615864720088
z" fill="none" stroke="none" style="animation-play-state:paused" ></path>


<circle cx="0" cy="0" r="5.923571647990731" fill="#ff708e" transform="translate(185.6882781982422 143.79656982421875)" style="animation-play-state:paused" ></circle>
<path id="path2" d="M 170.35298192470665 129.04609537189438
c 0 20.39398166576119 -4.990016790558588 5.857845797612256 -10.847862588170845 5.857845797612256
S 148.65725674836497 149.44007703765556 148.65725674836497 129.04609537189438
s 4.990016790558588 -5.857845797612256 10.847862588170845 -5.857845797612256
S 170.35298192470665 108.65211370613319 170.35298192470665 129.04609537189438
z" fill="none" stroke="none" style="animation-play-state:paused" ></path>


<circle cx="0" cy="0" r="4.228668880690624" fill="#e0ff77" transform="translate(165.70852661132812 119.49794006347656)" style="animation-play-state:paused" ></circle>
<path id="path3" d="M 1319.2471576819096 180.1096957036337
c 0 35.010594810891355 -8.566422134579799 10.056234679724112 -18.62265681430391 10.056234679724112
S 1282.001844053302 215.12029051452504 1282.001844053302 180.1096957036337
s 8.566422134579799 -10.056234679724112 18.62265681430391 -10.056234679724112
S 1319.2471576819096 145.09910089274234 1319.2471576819096 180.1096957036337
z" fill="none" stroke="none" style="animation-play-state:paused" ></path>


<circle cx="0" cy="0" r="5.482161632082379" fill="#de9dd6" transform="translate(1290.4859619140625 164.15264892578125)" style="animation-play-state:paused" ></circle>
<path id="path4" d="M 687.085289640199 300.65661327437556
c 0 27.316880699409552 -6.683917617940635 7.846338073234659 -14.530255691175293 7.846338073234659
S 658.0247782578484 327.97349397378514 658.0247782578484 300.65661327437556
s 6.683917617940635 -7.846338073234659 14.530255691175293 -7.846338073234659
S 687.085289640199 273.339732574966 687.085289640199 300.65661327437556
z" fill="none" stroke="none" style="animation-play-state:paused" ></path>


<circle cx="0" cy="0" r="4.895201373554386" fill="#51cacc" transform="translate(667.2757568359375 290.43499755859375)" style="animation-play-state:paused" ></circle>
<path id="path5" d="M 1126.8411701038015 242.83806547810696
c 0 29.996760145258467 -7.339632801499412 8.616090680021049 -15.955723481520462 8.616090680021049
S 1094.9297231407606 272.8348256233654 1094.9297231407606 242.83806547810696
s 7.339632801499412 -8.616090680021049 15.955723481520462 -8.616090680021049
S 1126.8411701038015 212.8413053328485 1126.8411701038015 242.83806547810696
z" fill="none" stroke="none" style="animation-play-state:paused" ></path>


<circle cx="0" cy="0" r="4.83998319339547" fill="#51cacc" transform="translate(1095.13427734375 250.2200469970703)" style="animation-play-state:paused" ></circle>
<path id="path6" d="M 217.90160782076293 624.6883900462678
c 0 25.425518756131122 -6.221137567989529 7.303074536335535 -13.524212104325064 7.303074536335535
S 190.8531836121128 650.113908802399 190.8531836121128 624.6883900462678
s 6.221137567989529 -7.303074536335535 13.524212104325064 -7.303074536335535
S 217.90160782076293 599.2628712901367 217.90160782076293 624.6883900462678
z" fill="none" stroke="none" style="animation-play-state:paused" ></path>


<circle cx="0" cy="0" r="6.1664924867883535" fill="#ff708e" transform="translate(217.85409545898438 621.152587890625)" style="animation-play-state:paused" ></circle>
<path id="path7" d="M 440.29316531204125 102.34368084527027
c 0 26.42353141173118 -6.465332153934224 7.589737745922785 -14.05506989985701 7.589737745922785
S 412.1830255123272 128.76721225700146 412.1830255123272 102.34368084527027
s 6.465332153934224 -7.589737745922785 14.05506989985701 -7.589737745922785
S 440.29316531204125 75.9201494335391 440.29316531204125 102.34368084527027
z" fill="none" stroke="none" style="animation-play-state:paused" ></path>


<circle cx="0" cy="0" r="6.607339955747761" fill="#9df871" transform="translate(440.2247009277344 106.60950469970703)" style="animation-play-state:paused" ></circle>
<path id="path8" d="M 866.4009032799794 139.27287519590624
c 0 29.16560258973 -7.136264463444574 8.377353935347978 -15.513618398792552 8.377353935347978
S 835.3736664823942 168.43847778563622 835.3736664823942 139.27287519590624
s 7.136264463444574 -8.377353935347978 15.513618398792552 -8.377353935347978
S 866.4009032799794 110.10727260617624 866.4009032799794 139.27287519590624
z" fill="none" stroke="none" style="animation-play-state:paused" ></path>


<circle cx="0" cy="0" r="6.270512921474512" fill="#9df871" transform="translate(865.8270263671875 128.48423767089844)" style="animation-play-state:paused" ></circle>
<path id="path9" d="M 1054.70148329748 397.6823851603991
c 0 33.54211997788155 -8.207114462673143 9.634438717051083 -17.841553179724226 9.634438717051083
S 1019.0183769380316 431.2245051382807 1019.0183769380316 397.6823851603991
s 8.207114462673143 -9.634438717051083 17.841553179724226 -9.634438717051083
S 1054.70148329748 364.14026518251757 1054.70148329748 397.6823851603991
z" fill="none" stroke="none" style="animation-play-state:paused" ></path>


<circle cx="0" cy="0" r="6.371053772360212" fill="#e0ff77" transform="translate(1038.22265625 387.8946228027344)" style="animation-play-state:paused" ></circle>
<path id="path10" d="M 281.78502509733056 685.1979515046481
c 0 24.7598502593379 -6.058261233667783 7.111871883001311 -13.170133116669094 7.111871883001311
S 255.44475886399238 709.957801763986 255.44475886399238 685.1979515046481
s 6.058261233667783 -7.111871883001311 13.170133116669094 -7.111871883001311
S 281.78502509733056 660.4381012453102 281.78502509733056 685.1979515046481
z" fill="none" stroke="none" style="animation-play-state:paused" ></path>


<circle cx="0" cy="0" r="5.18265681543155" fill="#51cacc" transform="translate(278.0696716308594 698.1432495117188)" style="animation-play-state:paused" ></circle>
<path id="path11" d="M 455.85534090478205 317.28735404588366
c 0 29.37184387705518 -7.1867277571517985 8.436593454047765 -15.623321211199563 8.436593454047765
S 424.608698482383 346.65919792293886 424.608698482383 317.28735404588366
s 7.1867277571517985 -8.436593454047765 15.623321211199563 -8.436593454047765
S 455.85534090478205 287.91551016882846 455.85534090478205 317.28735404588366
z" fill="none" stroke="none" style="animation-play-state:paused" ></path>


<circle cx="0" cy="0" r="4.002245552062906" fill="#de9dd6" transform="translate(455.7624816894531 312.1026611328125)" style="animation-play-state:paused" ></circle>
<path id="path12" d="M 561.9037809148417 635.3924587552898
c 0 21.79728040767241 -5.333377121026227 6.260920968161225 -11.59429808918745 6.260920968161225
S 538.7151847364669 657.1897391629622 538.7151847364669 635.3924587552898
s 5.333377121026227 -6.260920968161225 11.59429808918745 -6.260920968161225
S 561.9037809148417 613.5951783476174 561.9037809148417 635.3924587552898
z" fill="none" stroke="none" style="animation-play-state:paused" ></path>


<circle cx="0" cy="0" r="4.839655626721446" fill="#de9dd6" transform="translate(546.9403686523438 627.85888671875)" style="animation-play-state:paused" ></circle>
<path id="path13" d="M 1139.831257401153 77.57046015837645
c 0 18.968476007791363 -4.641222852970227 5.448392044791136 -10.089614897761363 5.448392044791136
S 1119.6520276056303 96.53893616616782 1119.6520276056303 77.57046015837645
s 4.641222852970227 -5.448392044791136 10.089614897761363 -5.448392044791136
S 1139.831257401153 58.60198415058508 1139.831257401153 77.57046015837645
z" fill="none" stroke="none" style="animation-play-state:paused" ></path>


<circle cx="0" cy="0" r="4.428727398035898" fill="#ff708e" transform="translate(1126.6353759765625 70.89288330078125)" style="animation-play-state:paused" ></circle>
<path id="path14" d="M 716.2250067794689 196.99127296218364
c 0 24.904009856010394 -6.093534326470627 7.15327942672639 -13.246813753197017 7.15327942672639
S 689.7313792730749 221.89528281819403 689.7313792730749 196.99127296218364
s 6.093534326470627 -7.15327942672639 13.246813753197017 -7.15327942672639
S 716.2250067794689 172.08726310617325 716.2250067794689 196.99127296218364
z" fill="none" stroke="none" style="animation-play-state:paused" ></path>


<circle cx="0" cy="0" r="5.661881781815213" fill="#9df871" transform="translate(707.5324096679688 187.8727569580078)" style="animation-play-state:paused" ></circle>
<path id="path15" d="M 417.6425521294323 157.44503833197524
c 0 33.96566270127008 -8.310747256693741 9.756094605683959 -18.0668418623777 9.756094605683959
S 381.5088684046769 191.41070103324532 381.5088684046769 157.44503833197524
s 8.310747256693741 -9.756094605683959 18.0668418623777 -9.756094605683959
S 417.6425521294323 123.47937563070516 417.6425521294323 157.44503833197524
z" fill="none" stroke="none" style="animation-play-state:paused" ></path>


<circle cx="0" cy="0" r="5.114617056587041" fill="#ff708e" transform="translate(395.6303405761719 168.3717803955078)" style="animation-play-state:paused" ></circle>
<path id="path16" d="M 1226.3253781526985 713.1179714792571
c 0 21.10376244453512 -5.163686555577741 6.061719000026045 -11.225405555603787 6.061719000026045
S 1203.8745670414908 734.2217339237923 1203.8745670414908 713.1179714792571
s 5.163686555577741 -6.061719000026045 11.225405555603787 -6.061719000026045
S 1226.3253781526985 692.014209034722 1226.3253781526985 713.1179714792571
z" fill="none" stroke="none" style="animation-play-state:paused" ></path>


<circle cx="0" cy="0" r="7.425232394476155" fill="#e0ff77" transform="translate(1217.47216796875 706.3722534179688)" style="animation-play-state:paused" ></circle>
<path id="path17" d="M 994.9872360630673 409.84819963083044
c 0 36.95456584761508 -9.042074622288794 10.614609339208586 -19.656683961497382 10.614609339208586
S 955.6738681400725 446.8027654784455 955.6738681400725 409.84819963083044
s 9.042074622288794 -10.614609339208586 19.656683961497382 -10.614609339208586
S 994.9872360630673 372.89363378321536 994.9872360630673 409.84819963083044
z" fill="none" stroke="none" style="animation-play-state:paused" ></path>


<circle cx="0" cy="0" r="6.2662610883138035" fill="#9df871" transform="translate(994.57421875 420.9520568847656)" style="animation-play-state:paused" ></circle>
<path id="path18" d="M 839.3246979600791 713.3296341745032
c 0 34.491952620064396 -8.43952032193065 9.907262986614242 -18.346783308544893 9.907262986614242
S 802.6311313429893 747.8215867945676 802.6311313429893 713.3296341745032
s 8.43952032193065 -9.907262986614242 18.346783308544893 -9.907262986614242
S 839.3246979600791 678.8376815544389 839.3246979600791 713.3296341745032
z" fill="none" stroke="none" style="animation-play-state:paused" ></path>


<circle cx="0" cy="0" r="7.27720278941308" fill="#51cacc" transform="translate(806.1781005859375 694.9490356445312)" style="animation-play-state:paused" ></circle>
<path id="path19" d="M 333.9167376421632 713.5982803991652
c 0 33.994360233726454 -8.3177689933586 9.764337513942706 -18.082106507301305 9.764337513942706
S 297.75252462756055 747.5926406328916 297.75252462756055 713.5982803991652
s 8.3177689933586 -9.764337513942706 18.082106507301305 -9.764337513942706
S 333.9167376421632 679.6039201654388 333.9167376421632 713.5982803991652
z" fill="none" stroke="none" style="animation-play-state:paused" ></path>


<circle cx="0" cy="0" r="6.172560915479017" fill="#51cacc" transform="translate(297.9124755859375 706.4508056640625)" style="animation-play-state:paused" ></circle>
<path id="path20" d="M 894.579985086434 293.06283132300064
c 0 36.06086704083306 -8.82340363765064 10.357908618111622 -19.181312255762265 10.357908618111622
S 856.2173605749095 329.1236983638337 856.2173605749095 293.06283132300064
s 8.82340363765064 -10.357908618111622 19.181312255762265 -10.357908618111622
S 894.579985086434 257.0019642821676 894.579985086434 293.06283132300064
z" fill="none" stroke="none" style="animation-play-state:paused" ></path>


<circle cx="0" cy="0" r="7.162873779281663" fill="#9df871" transform="translate(875.3257446289062 303.42144775390625)" style="animation-play-state:paused" ></circle>
<path id="path21" d="M 938.393569096734 425.3706736377788
c 0 35.33870506177102 -8.646704430007802 10.150479113487421 -18.797183543495223 10.150479113487421
S 900.7992020097437 460.7093786995498 900.7992020097437 425.3706736377788
s 8.646704430007802 -10.150479113487421 18.797183543495223 -10.150479113487421
S 938.393569096734 390.0319685760078 938.393569096734 425.3706736377788
z" fill="none" stroke="none" style="animation-play-state:paused" ></path>


<circle cx="0" cy="0" r="5.157006732583966" fill="#e0ff77" transform="translate(938.297119140625 431.2162780761719)" style="animation-play-state:paused" ></circle>
<path id="path22" d="M 1121.2127664064483 24.831743332656472
c 0 35.8411801174092 -8.769650454259697 10.294807055000517 -19.06445750926021 10.294807055000517
S 1083.083851387928 60.672923450065674 1083.083851387928 24.831743332656472
s 8.769650454259697 -10.294807055000517 19.06445750926021 -10.294807055000517
S 1121.2127664064483 -11.00943678475273 1121.2127664064483 24.831743332656472
z" fill="none" stroke="none" style="animation-play-state:paused" ></path>


<circle cx="0" cy="0" r="4.272232749079325" fill="#ff708e" transform="translate(1121.138427734375 30.066343307495117)" style="animation-play-state:paused" ></circle>
<path id="path23" d="M 726.6150814016781 344.4080157288669
c 0 24.5997856834151 -6.019096497005821 7.065895887789443 -13.084992384795264 7.065895887789443
S 700.4450966320877 369.00780141228205 700.4450966320877 344.4080157288669
s 6.019096497005821 -7.065895887789443 13.084992384795264 -7.065895887789443
S 726.6150814016781 319.8082300454518 726.6150814016781 344.4080157288669
z" fill="none" stroke="none" style="animation-play-state:paused" ></path>


<circle cx="0" cy="0" r="4.080800590098432" fill="#e0ff77" transform="translate(725.0629272460938 331.94671630859375)" style="animation-play-state:paused" ></circle>
<path id="path24" d="M 909.6027869634809 66.72602446618504
c 0 28.1164599092641 -6.87955933950079 8.076004442022668 -14.955563781523457 8.076004442022668
S 879.691659400434 94.84248437544915 879.691659400434 66.72602446618504
s 6.87955933950079 -8.076004442022668 14.955563781523457 -8.076004442022668
S 909.6027869634809 38.60956455692094 909.6027869634809 66.72602446618504
z" fill="none" stroke="none" style="animation-play-state:paused" ></path>


<circle cx="0" cy="0" r="4.253530917896178" fill="#e0ff77" transform="translate(897.806884765625 57.73920440673828)" style="animation-play-state:paused" ></circle>
<path id="path25" d="M 888.4102664292113 57.686534352994386
c 0 28.701798250727308 -7.022780423050297 8.244133540102524 -15.266913963152822 8.244133540102524
S 857.8764385029058 86.3883326037217 857.8764385029058 57.686534352994386
s 7.022780423050297 -8.244133540102524 15.266913963152822 -8.244133540102524
S 888.4102664292113 28.984736102267078 888.4102664292113 57.686534352994386
z" fill="none" stroke="none" style="animation-play-state:paused" ></path>


<circle cx="0" cy="0" r="6.888243342690785" fill="#51cacc" transform="translate(862.6471557617188 72.43973541259766)" style="animation-play-state:paused" ></circle>
<path id="path26" d="M 531.4232308707566 484.7352892661768
c 0 35.0208493727762 -8.568931229509067 10.059180138988907 -18.628111368497976 10.059180138988907
S 494.1670081337606 519.756138638953 494.1670081337606 484.7352892661768
s 8.568931229509067 -10.059180138988907 18.628111368497976 -10.059180138988907
S 531.4232308707566 449.7144398934006 531.4232308707566 484.7352892661768
z" fill="none" stroke="none" style="animation-play-state:paused" ></path>


<circle cx="0" cy="0" r="5.842768151247367" fill="#9df871" transform="translate(494.1754150390625 482.9281921386719)" style="animation-play-state:paused" ></circle>
<path id="path27" d="M 125.2568919819945 283.78836424274004
c 0 28.37410745871169 -6.942600761174137 8.150009589204423 -15.092610350378559 8.150009589204423
S 95.07167128123737 312.16247170145175 95.07167128123737 283.78836424274004
s 6.942600761174137 -8.150009589204423 15.092610350378559 -8.150009589204423
S 125.2568919819945 255.41425678402834 125.2568919819945 283.78836424274004
z" fill="none" stroke="none" style="animation-play-state:paused" ></path>


<circle cx="0" cy="0" r="7.403784389517025" fill="#de9dd6" transform="translate(125.22696685791016 286.81622314453125)" style="animation-play-state:paused" ></circle>
<path id="path28" d="M 683.9642731854834 351.22073728153094
c 0 26.654102385663737 -6.521748456066659 7.655965578860862 -14.17771403492752 7.655965578860862
S 655.6088451156285 377.8748396671947 655.6088451156285 351.22073728153094
s 6.521748456066659 -7.655965578860862 14.17771403492752 -7.655965578860862
S 683.9642731854834 324.5666348958672 683.9642731854834 351.22073728153094
z" fill="none" stroke="none" style="animation-play-state:paused" ></path>


<circle cx="0" cy="0" r="5.8585263525497036" fill="#9df871" transform="translate(680.0494995117188 337.2451477050781)" style="animation-play-state:paused" ></circle>
<path id="path29" d="M 222.660964801357 623.3338447478715
c 0 23.713333757693114 -5.802198685392995 6.811276717635256 -12.613475403028252 6.811276717635256
S 197.43401399530052 647.0471785055646 197.43401399530052 623.3338447478715
s 5.802198685392995 -6.811276717635256 12.613475403028252 -6.811276717635256
S 222.660964801357 599.6205109901783 222.660964801357 623.3338447478715
z" fill="none" stroke="none" style="animation-play-state:paused" ></path>


<circle cx="0" cy="0" r="4.12844054801734" fill="#ff708e" transform="translate(205.78448486328125 614.7070922851562)" style="animation-play-state:paused" ></circle></g></svg>